<svg width="16" height="15" viewBox="0 0 16 15" fill="none" xmlns="http://www.w3.org/2000/svg">
<path d="M13.3281 6.25C13.3281 10.625 7.70312 14.375 7.70312 14.375C7.70312 14.375 2.07812 10.625 2.07812 6.25C2.07813 4.75816 2.67076 3.32742 3.72565 2.27252C4.78054 1.21763 6.21128 0.625 7.70312 0.625C9.19497 0.625 10.6257 1.21763 11.6806 2.27252C12.7355 3.32742 13.3281 4.75816 13.3281 6.25Z" stroke="black" stroke-linecap="round" stroke-linejoin="round"/>
<path d="M7.70312 8.125C8.73866 8.125 9.57812 7.28553 9.57812 6.25C9.57812 5.21447 8.73866 4.375 7.70312 4.375C6.66759 4.375 5.82812 5.21447 5.82812 6.25C5.82812 7.28553 6.66759 8.125 7.70312 8.125Z" stroke="black" stroke-linecap="round" stroke-linejoin="round"/>
</svg>
