<svg width="153" height="188" viewBox="0 0 153 188" fill="none" xmlns="http://www.w3.org/2000/svg">
<circle cx="59.5723" cy="45.4723" r="45.25" fill="#FF0000"/>
<path d="M10.3041 148.4C11.9121 148.4 13.1721 148.784 14.0841 149.552C14.9961 150.32 15.4521 151.376 15.4521 152.72C15.4521 154.064 14.9961 155.12 14.0841 155.888C13.1721 156.644 11.9121 157.022 10.3041 157.022H6.92013V161H5.58813V148.4H10.3041ZM10.2681 155.852C11.5161 155.852 12.4701 155.582 13.1301 155.042C13.7901 154.49 14.1201 153.716 14.1201 152.72C14.1201 151.7 13.7901 150.92 13.1301 150.38C12.4701 149.828 11.5161 149.552 10.2681 149.552H6.92013V155.852H10.2681ZM17.8162 151.532H19.0942V161H17.8162V151.532ZM18.4642 149.462C18.2002 149.462 17.9782 149.372 17.7982 149.192C17.6182 149.012 17.5282 148.796 17.5282 148.544C17.5282 148.304 17.6182 148.094 17.7982 147.914C17.9782 147.734 18.2002 147.644 18.4642 147.644C18.7282 147.644 18.9502 147.734 19.1302 147.914C19.3102 148.082 19.4002 148.286 19.4002 148.526C19.4002 148.79 19.3102 149.012 19.1302 149.192C18.9502 149.372 18.7282 149.462 18.4642 149.462ZM26.5742 161.09C25.6382 161.09 24.7982 160.886 24.0542 160.478C23.3222 160.07 22.7462 159.5 22.3262 158.768C21.9062 158.024 21.6962 157.19 21.6962 156.266C21.6962 155.342 21.9062 154.514 22.3262 153.782C22.7462 153.05 23.3222 152.48 24.0542 152.072C24.7982 151.664 25.6382 151.46 26.5742 151.46C27.3902 151.46 28.1162 151.622 28.7522 151.946C29.4002 152.258 29.9102 152.72 30.2822 153.332L29.3282 153.98C29.0162 153.512 28.6202 153.164 28.1402 152.936C27.6602 152.696 27.1382 152.576 26.5742 152.576C25.8902 152.576 25.2722 152.732 24.7202 153.044C24.1802 153.344 23.7542 153.776 23.4422 154.34C23.1422 154.904 22.9922 155.546 22.9922 156.266C22.9922 156.998 23.1422 157.646 23.4422 158.21C23.7542 158.762 24.1802 159.194 24.7202 159.506C25.2722 159.806 25.8902 159.956 26.5742 159.956C27.1382 159.956 27.6602 159.842 28.1402 159.614C28.6202 159.386 29.0162 159.038 29.3282 158.57L30.2822 159.218C29.9102 159.83 29.4002 160.298 28.7522 160.622C28.1042 160.934 27.3782 161.09 26.5742 161.09ZM36.1621 156.248L33.9301 158.3V161H32.6521V147.644H33.9301V156.698L39.5821 151.532H41.1661L37.1161 155.402L41.5441 161H39.9781L36.1621 156.248ZM51.4856 151.46C52.7216 151.46 53.6696 151.772 54.3296 152.396C54.9896 153.008 55.3196 153.92 55.3196 155.132V161H54.0956V159.524C53.8076 160.016 53.3816 160.4 52.8176 160.676C52.2656 160.952 51.6056 161.09 50.8376 161.09C49.7816 161.09 48.9416 160.838 48.3176 160.334C47.6936 159.83 47.3816 159.164 47.3816 158.336C47.3816 157.532 47.6696 156.884 48.2456 156.392C48.8336 155.9 49.7636 155.654 51.0356 155.654H54.0416V155.078C54.0416 154.262 53.8136 153.644 53.3576 153.224C52.9016 152.792 52.2356 152.576 51.3596 152.576C50.7596 152.576 50.1836 152.678 49.6316 152.882C49.0796 153.074 48.6056 153.344 48.2096 153.692L47.6336 152.738C48.1136 152.33 48.6896 152.018 49.3616 151.802C50.0336 151.574 50.7416 151.46 51.4856 151.46ZM51.0356 160.082C51.7556 160.082 52.3736 159.92 52.8896 159.596C53.4056 159.26 53.7896 158.78 54.0416 158.156V156.608H51.0716C49.4516 156.608 48.6416 157.172 48.6416 158.3C48.6416 158.852 48.8516 159.29 49.2716 159.614C49.6916 159.926 50.2796 160.082 51.0356 160.082ZM68.3797 151.46C69.2677 151.46 70.0717 151.664 70.7917 152.072C71.5117 152.468 72.0757 153.032 72.4837 153.764C72.8917 154.496 73.0957 155.33 73.0957 156.266C73.0957 157.214 72.8917 158.054 72.4837 158.786C72.0757 159.518 71.5117 160.088 70.7917 160.496C70.0837 160.892 69.2797 161.09 68.3797 161.09C67.6117 161.09 66.9157 160.934 66.2917 160.622C65.6797 160.298 65.1757 159.83 64.7797 159.218V164.492H63.5017V151.532H64.7257V153.404C65.1097 152.78 65.6137 152.3 66.2377 151.964C66.8737 151.628 67.5877 151.46 68.3797 151.46ZM68.2897 159.956C68.9497 159.956 69.5497 159.806 70.0897 159.506C70.6297 159.194 71.0497 158.756 71.3497 158.192C71.6617 157.628 71.8177 156.986 71.8177 156.266C71.8177 155.546 71.6617 154.91 71.3497 154.358C71.0497 153.794 70.6297 153.356 70.0897 153.044C69.5497 152.732 68.9497 152.576 68.2897 152.576C67.6177 152.576 67.0117 152.732 66.4717 153.044C65.9437 153.356 65.5237 153.794 65.2117 154.358C64.9117 154.91 64.7617 155.546 64.7617 156.266C64.7617 156.986 64.9117 157.628 65.2117 158.192C65.5237 158.756 65.9437 159.194 66.4717 159.506C67.0117 159.806 67.6177 159.956 68.2897 159.956ZM79.5709 161.09C78.6589 161.09 77.8369 160.886 77.1049 160.478C76.3729 160.058 75.7969 159.482 75.3769 158.75C74.9569 158.018 74.7469 157.19 74.7469 156.266C74.7469 155.342 74.9569 154.514 75.3769 153.782C75.7969 153.05 76.3729 152.48 77.1049 152.072C77.8369 151.664 78.6589 151.46 79.5709 151.46C80.4829 151.46 81.3049 151.664 82.0369 152.072C82.7689 152.48 83.3389 153.05 83.7469 153.782C84.1669 154.514 84.3769 155.342 84.3769 156.266C84.3769 157.19 84.1669 158.018 83.7469 158.75C83.3389 159.482 82.7689 160.058 82.0369 160.478C81.3049 160.886 80.4829 161.09 79.5709 161.09ZM79.5709 159.956C80.2429 159.956 80.8429 159.806 81.3709 159.506C81.9109 159.194 82.3309 158.756 82.6309 158.192C82.9309 157.628 83.0809 156.986 83.0809 156.266C83.0809 155.546 82.9309 154.904 82.6309 154.34C82.3309 153.776 81.9109 153.344 81.3709 153.044C80.8429 152.732 80.2429 152.576 79.5709 152.576C78.8989 152.576 78.2929 152.732 77.7529 153.044C77.2249 153.344 76.8049 153.776 76.4929 154.34C76.1929 154.904 76.0429 155.546 76.0429 156.266C76.0429 156.986 76.1929 157.628 76.4929 158.192C76.8049 158.756 77.2249 159.194 77.7529 159.506C78.2929 159.806 78.8989 159.956 79.5709 159.956ZM86.9861 151.532H88.2641V161H86.9861V151.532ZM87.6341 149.462C87.3701 149.462 87.1481 149.372 86.9681 149.192C86.7881 149.012 86.6981 148.796 86.6981 148.544C86.6981 148.304 86.7881 148.094 86.9681 147.914C87.1481 147.734 87.3701 147.644 87.6341 147.644C87.8981 147.644 88.1201 147.734 88.3001 147.914C88.4801 148.082 88.5701 148.286 88.5701 148.526C88.5701 148.79 88.4801 149.012 88.3001 149.192C88.1201 149.372 87.8981 149.462 87.6341 149.462ZM96.6441 151.46C97.8321 151.46 98.7741 151.808 99.4701 152.504C100.178 153.188 100.532 154.19 100.532 155.51V161H99.2541V155.636C99.2541 154.652 99.0081 153.902 98.5161 153.386C98.0241 152.87 97.3221 152.612 96.4101 152.612C95.3901 152.612 94.5801 152.918 93.9801 153.53C93.3921 154.13 93.0981 154.964 93.0981 156.032V161H91.8201V151.532H93.0441V153.278C93.3921 152.702 93.8721 152.258 94.4841 151.946C95.1081 151.622 95.8281 151.46 96.6441 151.46ZM108.988 160.424C108.748 160.64 108.448 160.808 108.088 160.928C107.74 161.036 107.374 161.09 106.99 161.09C106.102 161.09 105.418 160.85 104.938 160.37C104.458 159.89 104.218 159.212 104.218 158.336V152.612H102.526V151.532H104.218V149.462H105.496V151.532H108.376V152.612H105.496V158.264C105.496 158.828 105.634 159.26 105.91 159.56C106.198 159.848 106.606 159.992 107.134 159.992C107.398 159.992 107.65 159.95 107.89 159.866C108.142 159.782 108.358 159.662 108.538 159.506L108.988 160.424ZM119.337 151.46C120.573 151.46 121.521 151.772 122.181 152.396C122.841 153.008 123.171 153.92 123.171 155.132V161H121.947V159.524C121.659 160.016 121.233 160.4 120.669 160.676C120.117 160.952 119.457 161.09 118.689 161.09C117.633 161.09 116.793 160.838 116.169 160.334C115.545 159.83 115.233 159.164 115.233 158.336C115.233 157.532 115.521 156.884 116.097 156.392C116.685 155.9 117.615 155.654 118.887 155.654H121.893V155.078C121.893 154.262 121.665 153.644 121.209 153.224C120.753 152.792 120.087 152.576 119.211 152.576C118.611 152.576 118.035 152.678 117.483 152.882C116.931 153.074 116.457 153.344 116.061 153.692L115.485 152.738C115.965 152.33 116.541 152.018 117.213 151.802C117.885 151.574 118.593 151.46 119.337 151.46ZM118.887 160.082C119.607 160.082 120.225 159.92 120.741 159.596C121.257 159.26 121.641 158.78 121.893 158.156V156.608H118.923C117.303 156.608 116.493 157.172 116.493 158.3C116.493 158.852 116.703 159.29 117.123 159.614C117.543 159.926 118.131 160.082 118.887 160.082ZM131.466 151.46C132.654 151.46 133.596 151.808 134.292 152.504C135 153.188 135.354 154.19 135.354 155.51V161H134.076V155.636C134.076 154.652 133.83 153.902 133.338 153.386C132.846 152.87 132.144 152.612 131.232 152.612C130.212 152.612 129.402 152.918 128.802 153.53C128.214 154.13 127.92 154.964 127.92 156.032V161H126.642V151.532H127.866V153.278C128.214 152.702 128.694 152.258 129.306 151.946C129.93 151.622 130.65 151.46 131.466 151.46ZM147.499 147.644V161H146.275V159.128C145.891 159.764 145.381 160.25 144.745 160.586C144.121 160.922 143.413 161.09 142.621 161.09C141.733 161.09 140.929 160.886 140.209 160.478C139.489 160.07 138.925 159.5 138.517 158.768C138.109 158.036 137.905 157.202 137.905 156.266C137.905 155.33 138.109 154.496 138.517 153.764C138.925 153.032 139.489 152.468 140.209 152.072C140.929 151.664 141.733 151.46 142.621 151.46C143.389 151.46 144.079 151.622 144.691 151.946C145.315 152.258 145.825 152.72 146.221 153.332V147.644H147.499ZM142.729 159.956C143.389 159.956 143.983 159.806 144.511 159.506C145.051 159.194 145.471 158.756 145.771 158.192C146.083 157.628 146.239 156.986 146.239 156.266C146.239 155.546 146.083 154.904 145.771 154.34C145.471 153.776 145.051 153.344 144.511 153.044C143.983 152.732 143.389 152.576 142.729 152.576C142.057 152.576 141.451 152.732 140.911 153.044C140.383 153.344 139.963 153.776 139.651 154.34C139.351 154.904 139.201 155.546 139.201 156.266C139.201 156.986 139.351 157.628 139.651 158.192C139.963 158.756 140.383 159.194 140.911 159.506C141.451 159.806 142.057 159.956 142.729 159.956ZM27.0119 175.386C27.3119 174.75 27.7559 174.27 28.3439 173.946C28.9439 173.622 29.6819 173.46 30.5579 173.46V174.702L30.2519 174.684C29.2559 174.684 28.4759 174.99 27.9119 175.602C27.3479 176.214 27.0659 177.072 27.0659 178.176V183H25.7879V173.532H27.0119V175.386ZM41.028 178.662H33.108C33.18 179.646 33.558 180.444 34.242 181.056C34.926 181.656 35.79 181.956 36.834 181.956C37.422 181.956 37.962 181.854 38.454 181.65C38.946 181.434 39.372 181.122 39.732 180.714L40.452 181.542C40.032 182.046 39.504 182.43 38.868 182.694C38.244 182.958 37.554 183.09 36.798 183.09C35.826 183.09 34.962 182.886 34.206 182.478C33.462 182.058 32.88 181.482 32.46 180.75C32.04 180.018 31.83 179.19 31.83 178.266C31.83 177.342 32.028 176.514 32.424 175.782C32.832 175.05 33.384 174.48 34.08 174.072C34.788 173.664 35.58 173.46 36.456 173.46C37.332 173.46 38.118 173.664 38.814 174.072C39.51 174.48 40.056 175.05 40.452 175.782C40.848 176.502 41.046 177.33 41.046 178.266L41.028 178.662ZM36.456 174.558C35.544 174.558 34.776 174.852 34.152 175.44C33.54 176.016 33.192 176.772 33.108 177.708H39.822C39.738 176.772 39.384 176.016 38.76 175.44C38.148 174.852 37.38 174.558 36.456 174.558ZM46.6956 173.46C47.9316 173.46 48.8796 173.772 49.5396 174.396C50.1996 175.008 50.5296 175.92 50.5296 177.132V183H49.3056V181.524C49.0176 182.016 48.5916 182.4 48.0276 182.676C47.4756 182.952 46.8156 183.09 46.0476 183.09C44.9916 183.09 44.1516 182.838 43.5276 182.334C42.9036 181.83 42.5916 181.164 42.5916 180.336C42.5916 179.532 42.8796 178.884 43.4556 178.392C44.0436 177.9 44.9736 177.654 46.2456 177.654H49.2516V177.078C49.2516 176.262 49.0236 175.644 48.5676 175.224C48.1116 174.792 47.4456 174.576 46.5696 174.576C45.9696 174.576 45.3936 174.678 44.8416 174.882C44.2896 175.074 43.8156 175.344 43.4196 175.692L42.8436 174.738C43.3236 174.33 43.8996 174.018 44.5716 173.802C45.2436 173.574 45.9516 173.46 46.6956 173.46ZM46.2456 182.082C46.9656 182.082 47.5836 181.92 48.0996 181.596C48.6156 181.26 48.9996 180.78 49.2516 180.156V178.608H46.2816C44.6616 178.608 43.8516 179.172 43.8516 180.3C43.8516 180.852 44.0616 181.29 44.4816 181.614C44.9016 181.926 45.4896 182.082 46.2456 182.082ZM62.6759 169.644V183H61.4519V181.128C61.0679 181.764 60.5579 182.25 59.9219 182.586C59.2979 182.922 58.5899 183.09 57.7979 183.09C56.9099 183.09 56.1059 182.886 55.3859 182.478C54.6659 182.07 54.1019 181.5 53.6939 180.768C53.2859 180.036 53.0819 179.202 53.0819 178.266C53.0819 177.33 53.2859 176.496 53.6939 175.764C54.1019 175.032 54.6659 174.468 55.3859 174.072C56.1059 173.664 56.9099 173.46 57.7979 173.46C58.5659 173.46 59.2559 173.622 59.8679 173.946C60.4919 174.258 61.0019 174.72 61.3979 175.332V169.644H62.6759ZM57.9059 181.956C58.5659 181.956 59.1599 181.806 59.6879 181.506C60.2279 181.194 60.6479 180.756 60.9479 180.192C61.2599 179.628 61.4159 178.986 61.4159 178.266C61.4159 177.546 61.2599 176.904 60.9479 176.34C60.6479 175.776 60.2279 175.344 59.6879 175.044C59.1599 174.732 58.5659 174.576 57.9059 174.576C57.2339 174.576 56.6279 174.732 56.0879 175.044C55.5599 175.344 55.1399 175.776 54.8279 176.34C54.5279 176.904 54.3779 177.546 54.3779 178.266C54.3779 178.986 54.5279 179.628 54.8279 180.192C55.1399 180.756 55.5599 181.194 56.0879 181.506C56.6279 181.806 57.2339 181.956 57.9059 181.956ZM74.2581 173.46C75.4941 173.46 76.4421 173.772 77.1021 174.396C77.7621 175.008 78.0921 175.92 78.0921 177.132V183H76.8681V181.524C76.5801 182.016 76.1541 182.4 75.5901 182.676C75.0381 182.952 74.3781 183.09 73.6101 183.09C72.5541 183.09 71.7141 182.838 71.0901 182.334C70.4661 181.83 70.1541 181.164 70.1541 180.336C70.1541 179.532 70.4421 178.884 71.0181 178.392C71.6061 177.9 72.5361 177.654 73.8081 177.654H76.8141V177.078C76.8141 176.262 76.5861 175.644 76.1301 175.224C75.6741 174.792 75.0081 174.576 74.1321 174.576C73.5321 174.576 72.9561 174.678 72.4041 174.882C71.8521 175.074 71.3781 175.344 70.9821 175.692L70.4061 174.738C70.8861 174.33 71.4621 174.018 72.1341 173.802C72.8061 173.574 73.5141 173.46 74.2581 173.46ZM73.8081 182.082C74.5281 182.082 75.1461 181.92 75.6621 181.596C76.1781 181.26 76.5621 180.78 76.8141 180.156V178.608H73.8441C72.2241 178.608 71.4141 179.172 71.4141 180.3C71.4141 180.852 71.6241 181.29 72.0441 181.614C72.4641 181.926 73.0521 182.082 73.8081 182.082ZM88.8122 183.09C88.0442 183.09 87.3062 182.982 86.5982 182.766C85.9022 182.538 85.3562 182.256 84.9602 181.92L85.5362 180.912C85.9322 181.224 86.4302 181.482 87.0302 181.686C87.6302 181.878 88.2542 181.974 88.9022 181.974C89.7662 181.974 90.4022 181.842 90.8102 181.578C91.2302 181.302 91.4402 180.918 91.4402 180.426C91.4402 180.078 91.3262 179.808 91.0982 179.616C90.8702 179.412 90.5822 179.262 90.2342 179.166C89.8862 179.058 89.4242 178.956 88.8482 178.86C88.0802 178.716 87.4622 178.572 86.9942 178.428C86.5262 178.272 86.1242 178.014 85.7882 177.654C85.4642 177.294 85.3022 176.796 85.3022 176.16C85.3022 175.368 85.6322 174.72 86.2922 174.216C86.9522 173.712 87.8702 173.46 89.0462 173.46C89.6582 173.46 90.2702 173.544 90.8822 173.712C91.4942 173.868 91.9982 174.078 92.3942 174.342L91.8362 175.368C91.0562 174.828 90.1262 174.558 89.0462 174.558C88.2302 174.558 87.6122 174.702 87.1922 174.99C86.7842 175.278 86.5802 175.656 86.5802 176.124C86.5802 176.484 86.6942 176.772 86.9222 176.988C87.1622 177.204 87.4562 177.366 87.8042 177.474C88.1522 177.57 88.6322 177.672 89.2442 177.78C90.0002 177.924 90.6062 178.068 91.0622 178.212C91.5182 178.356 91.9082 178.602 92.2322 178.95C92.5562 179.298 92.7182 179.778 92.7182 180.39C92.7182 181.218 92.3702 181.878 91.6742 182.37C90.9902 182.85 90.0362 183.09 88.8122 183.09ZM100.067 182.424C99.8268 182.64 99.5268 182.808 99.1668 182.928C98.8188 183.036 98.4528 183.09 98.0688 183.09C97.1808 183.09 96.4968 182.85 96.0168 182.37C95.5368 181.89 95.2968 181.212 95.2968 180.336V174.612H93.6048V173.532H95.2968V171.462H96.5748V173.532H99.4548V174.612H96.5748V180.264C96.5748 180.828 96.7128 181.26 96.9888 181.56C97.2768 181.848 97.6848 181.992 98.2128 181.992C98.4768 181.992 98.7288 181.95 98.9688 181.866C99.2208 181.782 99.4368 181.662 99.6168 181.506L100.067 182.424ZM105.929 183.09C105.017 183.09 104.195 182.886 103.463 182.478C102.731 182.058 102.155 181.482 101.735 180.75C101.315 180.018 101.105 179.19 101.105 178.266C101.105 177.342 101.315 176.514 101.735 175.782C102.155 175.05 102.731 174.48 103.463 174.072C104.195 173.664 105.017 173.46 105.929 173.46C106.841 173.46 107.663 173.664 108.395 174.072C109.127 174.48 109.697 175.05 110.105 175.782C110.525 176.514 110.735 177.342 110.735 178.266C110.735 179.19 110.525 180.018 110.105 180.75C109.697 181.482 109.127 182.058 108.395 182.478C107.663 182.886 106.841 183.09 105.929 183.09ZM105.929 181.956C106.601 181.956 107.201 181.806 107.729 181.506C108.269 181.194 108.689 180.756 108.989 180.192C109.289 179.628 109.439 178.986 109.439 178.266C109.439 177.546 109.289 176.904 108.989 176.34C108.689 175.776 108.269 175.344 107.729 175.044C107.201 174.732 106.601 174.576 105.929 174.576C105.257 174.576 104.651 174.732 104.111 175.044C103.583 175.344 103.163 175.776 102.851 176.34C102.551 176.904 102.401 177.546 102.401 178.266C102.401 178.986 102.551 179.628 102.851 180.192C103.163 180.756 103.583 181.194 104.111 181.506C104.651 181.806 105.257 181.956 105.929 181.956ZM114.569 175.386C114.869 174.75 115.313 174.27 115.901 173.946C116.501 173.622 117.239 173.46 118.115 173.46V174.702L117.809 174.684C116.812 174.684 116.033 174.99 115.469 175.602C114.905 176.214 114.623 177.072 114.623 178.176V183H113.345V173.532H114.569V175.386ZM128.789 173.532L124.055 184.134C123.671 185.022 123.227 185.652 122.723 186.024C122.219 186.396 121.613 186.582 120.905 186.582C120.449 186.582 120.023 186.51 119.627 186.366C119.231 186.222 118.889 186.006 118.601 185.718L119.195 184.764C119.675 185.244 120.251 185.484 120.923 185.484C121.355 185.484 121.721 185.364 122.021 185.124C122.333 184.884 122.621 184.476 122.885 183.9L123.299 182.982L119.069 173.532H120.401L123.965 181.578L127.529 173.532H128.789Z" fill="black"/>
<path d="M81.8435 42.9537L134.553 57.0642L95.9783 95.6569L81.8435 42.9537Z" fill="black"/>
<rect x="104.705" y="71.841" width="9.08791" height="42.3017" transform="rotate(-46.7201 104.705 71.841)" fill="black"/>
</svg>
